<svg width="87" height="51" viewBox="0 0 87 51" fill="none" xmlns="http://www.w3.org/2000/svg">
<path d="M7.16801 50.56C4.90668 50.56 3.15735 49.8987 1.92001 48.576C0.640013 47.2533 1.33514e-05 45.4613 1.33514e-05 43.2C1.33514e-05 42.6453 0.0426801 42.112 0.128014 41.6C0.17068 41.088 0.23468 40.6187 0.320014 40.192C1.08801 36.5653 3.02935 32.4053 6.14401 27.712C8.19201 24.5547 10.4747 21.696 12.992 19.136C15.552 16.576 18.176 14.528 20.864 12.992C23.5947 11.456 26.2187 10.688 28.736 10.688C30.1867 10.688 31.2533 11.0933 31.936 11.904C32.6187 12.672 32.96 13.7173 32.96 15.04C32.96 16.576 32.576 18.3467 31.808 20.352C30.9973 22.3573 29.9947 24.256 28.8 26.048C27.648 27.7973 26.5173 29.0773 25.408 29.888C25.2373 30.0587 25.0453 30.144 24.832 30.144C24.6613 30.144 24.576 30.0373 24.576 29.824C24.576 29.3547 24.8747 28.8853 25.472 28.416C26.0267 28.032 26.624 27.3707 27.264 26.432C27.9467 25.4507 28.5867 24.3627 29.184 23.168C29.824 21.9733 30.336 20.7787 30.72 19.584C31.1467 18.3893 31.36 17.3653 31.36 16.512C31.36 14.464 30.336 13.44 28.288 13.44C24.4053 13.44 20.6507 14.9333 17.024 17.92C14.592 19.8827 12.3733 22.1867 10.368 24.832C8.40535 27.4347 6.72001 30.1013 5.31201 32.832C3.94668 35.5627 2.94401 38.144 2.30401 40.576C2.04801 41.5147 1.92001 42.4533 1.92001 43.392C1.92001 45.2267 2.45335 46.6773 3.52001 47.744C4.54401 48.8107 5.95201 49.2587 7.74401 49.088C11.0293 48.7893 14.656 47.488 18.624 45.184C21.2267 43.648 23.744 41.92 26.176 40C28.608 38.08 30.8693 36.0747 32.96 33.984C35.0507 31.8507 36.864 29.8027 38.4 27.84L35.328 28.288C34.3893 28.416 33.6 28.5653 32.96 28.736C32.3627 28.864 31.9573 28.9707 31.744 29.056C31.6587 29.0987 31.552 29.12 31.424 29.12C31.168 29.12 31.04 28.928 31.04 28.544C31.04 28.16 31.168 27.712 31.424 27.2C31.7227 26.688 32.0427 26.3467 32.384 26.176C33.536 25.5787 36.288 25.1307 40.64 24.832C42.5173 22.6987 44.4587 20.5653 46.464 18.432C48.5973 16.128 50.3893 14.1653 51.84 12.544C53.2907 10.9227 54.5707 9.42934 55.68 8.06401C56.832 6.656 57.9413 5.20534 59.008 3.71201C59.3493 3.24267 59.6907 3.008 60.032 3.008C60.288 3.008 60.416 3.136 60.416 3.39201C60.416 3.64801 60.3307 3.86134 60.16 4.03201C58.7093 6.08 57.1947 8.08534 55.616 10.048C54.0373 12.0107 52.288 14.1013 50.368 16.32C48.4907 18.496 46.3573 20.9707 43.968 23.744L43.136 24.704L46.08 24.576L51.712 24.384C51.6693 24.4693 51.8613 24.0853 52.288 23.232C52.7147 22.336 53.3547 20.9707 54.208 19.136C55.4027 16.6613 56.448 14.464 57.344 12.544C58.2827 10.5813 59.0507 8.89601 59.648 7.48801C60.8854 4.71467 61.5253 2.79467 61.568 1.728C61.6107 1.17334 61.888 0.746671 62.4 0.448006C62.912 0.149338 63.488 3.8147e-06 64.128 3.8147e-06C64.5973 3.8147e-06 65.024 0.0853373 65.408 0.256004C65.8347 0.384005 66.0907 0.554672 66.176 0.768005C66.3894 1.15201 66.0693 2.17601 65.216 3.84C64.6614 4.992 63.9787 6.31467 63.168 7.80801C62.3573 9.30134 61.44 10.9653 60.416 12.8C59.008 15.3173 57.792 17.536 56.768 19.456C55.7867 21.376 54.9974 22.9973 54.4 24.32L59.328 24.064H59.52C59.904 24.064 60.096 24.192 60.096 24.448C60.096 24.6187 59.9893 24.7893 59.776 24.96C59.5627 25.1307 59.2853 25.2373 58.944 25.28L53.76 25.664C53.7173 25.7493 53.4827 26.2613 53.056 27.2C52.6293 28.1387 52.0107 29.4827 51.2 31.232C49.5787 34.816 48.768 37.8667 48.768 40.384C48.768 42.0907 49.408 42.944 50.688 42.944C51.0293 42.944 51.4773 42.7733 52.032 42.432C52.6294 42.1333 53.184 41.7707 53.696 41.344C54.2507 40.9173 54.656 40.5333 54.912 40.192C55.2107 39.7653 55.5093 39.552 55.808 39.552C55.9787 39.552 56.064 39.6373 56.064 39.808C56.064 40.0213 55.8933 40.2987 55.552 40.64C55.1254 41.1093 54.5707 41.6427 53.888 42.24C53.2054 42.8373 52.5227 43.3493 51.84 43.776C51.1573 44.2027 50.5813 44.4373 50.112 44.48C47.3813 44.6507 46.016 43.4133 46.016 40.768C46.016 39.1893 46.4 37.376 47.168 35.328C47.9787 33.28 48.9813 30.8907 50.176 28.16L51.2 25.856C49.7494 25.984 47.7654 26.304 45.248 26.816C44.352 26.9867 43.5413 27.136 42.816 27.264C42.1333 27.3493 41.5573 27.4347 41.088 27.52C38.5707 30.3787 35.8613 33.1733 32.96 35.904C30.0587 38.6347 27.0933 41.1093 24.064 43.328C21.0773 45.5467 18.1333 47.296 15.232 48.576C12.3733 49.8987 9.68535 50.56 7.16801 50.56ZM67.768 45.76C67.128 45.76 66.6587 45.44 66.36 44.8C66.3173 44.7573 66.296 44.6293 66.296 44.416C66.296 44.2027 66.4027 43.712 66.616 42.944C66.7013 42.7307 66.7653 42.5173 66.808 42.304C66.8933 42.0907 66.9787 41.8773 67.064 41.664C67.1493 41.4507 67.2347 41.216 67.32 40.96C67.4053 40.6613 67.4907 40.3627 67.576 40.064C67.7467 39.424 67.832 38.8907 67.832 38.464C67.832 37.8667 67.64 37.568 67.256 37.568C67.128 37.568 66.8933 37.6747 66.552 37.888C65.9973 38.3147 65.4 38.72 64.76 39.104C64.1627 39.488 63.5227 39.8507 62.84 40.192L60.792 41.28L59.448 42.048C59.32 42.0907 59.0213 42.2827 58.552 42.624C58.1253 42.88 57.6773 43.008 57.208 43.008C56.6533 43.008 56.0347 42.7093 55.352 42.112C54.84 41.6 54.584 41.0667 54.584 40.512C54.584 40.0427 54.8187 39.3813 55.288 38.528C55.6293 37.9733 56.2053 37.2907 57.016 36.48C57.3573 36.1387 57.6347 35.84 57.848 35.584C58.104 35.2853 58.3173 35.0507 58.488 34.88C60.28 32.4907 63.0533 30.3787 66.808 28.544C67.8747 27.9893 68.8347 27.712 69.688 27.712C70.6267 27.712 71.3733 28.096 71.928 28.864C72.184 28.352 72.5893 27.6267 73.144 26.688C73.7413 25.7067 74.3813 24.64 75.064 23.488C75.7893 22.336 76.472 21.248 77.112 20.224C77.7947 19.2 78.328 18.4107 78.712 17.856C79.864 16.2773 80.8027 15.0827 81.528 14.272C82.2533 13.504 82.9147 13.12 83.512 13.12C83.7253 13.12 84.0027 13.2267 84.344 13.44C84.6427 13.696 84.792 14.0373 84.792 14.464C84.792 15.104 84.5147 15.8507 83.96 16.704C83.4053 17.5573 82.6373 18.6027 81.656 19.84C81.5707 19.968 81.4427 20.1387 81.272 20.352C81.1013 20.5227 80.9093 20.7573 80.696 21.056C80.2267 21.7387 79.736 22.464 79.224 23.232C78.712 23.9573 78.1573 24.6827 77.56 25.408C76.7067 26.5173 75.8107 27.7333 74.872 29.056C73.9333 30.336 73.0587 31.68 72.248 33.088C71.5227 34.368 70.904 35.6907 70.392 37.056C69.88 38.3787 69.4533 39.7227 69.112 41.088C69.0693 41.3867 69.0267 41.6213 68.984 41.792C68.984 42.0053 68.984 42.1547 68.984 42.24L69.048 43.2C69.0907 43.328 69.112 43.6267 69.112 44.096C69.112 45.2053 68.664 45.76 67.768 45.76ZM59 40.256C59.4693 40.256 59.896 40.1707 60.28 40C61.9013 39.4453 63.4373 38.7413 64.888 37.888C66.3387 37.0347 67.8747 35.8827 69.496 34.432C69.7093 33.8347 69.9653 33.1947 70.264 32.512C70.5627 31.8293 70.8827 31.0827 71.224 30.272C70.712 29.2053 69.9653 28.672 68.984 28.672C68.344 28.672 67.6613 28.8853 66.936 29.312C66.2107 29.7387 65.4 30.3147 64.504 31.04C63.6507 31.7227 62.776 32.4907 61.88 33.344C61.0267 34.1973 60.28 35.0293 59.64 35.84C59 36.608 58.552 37.248 58.296 37.76C58.04 38.1867 57.912 38.6773 57.912 39.232C57.912 39.9147 58.2747 40.256 59 40.256ZM81.608 26.944C81.0533 26.944 80.776 26.816 80.776 26.56C80.776 26.3467 80.9253 26.048 81.224 25.664C81.5653 25.2373 81.9493 24.8747 82.376 24.576C83.3147 23.9787 84.04 23.4667 84.552 23.04C85.1067 22.6133 85.768 21.888 86.536 20.864C86.5787 20.9493 86.6 21.12 86.6 21.376C86.6 21.9307 86.3653 22.6133 85.896 23.424C85.4693 24.192 84.9787 24.896 84.424 25.536C83.8693 26.176 83.3787 26.5813 82.952 26.752C82.568 26.88 82.12 26.944 81.608 26.944ZM75.912 42.624C75.5707 42.624 75.2507 42.496 74.952 42.24C74.6533 41.984 74.504 41.6427 74.504 41.216C74.504 40.32 75.1227 38.6773 76.36 36.288L77.064 34.88C77.1493 34.7947 77.256 34.5813 77.384 34.24C77.5547 33.8987 77.7893 33.4507 78.088 32.896C78.3867 32.2987 78.6213 31.7653 78.792 31.296C78.9627 30.8267 79.0907 30.3787 79.176 29.952C79.176 29.9093 79.2613 29.824 79.432 29.696C79.6027 29.568 79.7733 29.4613 79.944 29.376L80.328 29.312C80.6693 29.312 80.9467 29.376 81.16 29.504C81.416 29.632 81.5013 29.8027 81.416 30.016C81.1173 30.656 80.8613 31.2107 80.648 31.68C80.4347 32.1493 80.264 32.5547 80.136 32.896H80.072C79.6027 33.9627 79.1973 34.9867 78.856 35.968C78.5573 36.9067 78.4293 37.8027 78.472 38.656L78.536 40.384C78.4933 40.8107 78.344 41.1733 78.088 41.472C77.9173 41.6 77.6827 41.7493 77.384 41.92C77.0853 42.1333 76.7013 42.3467 76.232 42.56C76.1893 42.6027 76.0827 42.624 75.912 42.624Z" fill="#EBECF0"/>
</svg>
